<?xml version="1.0" encoding="UTF-8"?>
<svg xmlns="http://www.w3.org/2000/svg" xmlns:xlink="http://www.w3.org/1999/xlink" width="120pt" height="120pt" viewBox="0 0 120 120" version="1.1">
<g id="surface1268261">
<path style=" stroke:none;fill-rule:nonzero;fill:rgb(0%,58.823529%,23.529412%);fill-opacity:1;" d="M 28 16 C 26.976562 16 25.953125 16.390625 25.171875 17.171875 L 17.171875 25.171875 C 15.609375 26.734375 15.609375 29.269531 17.171875 30.828125 L 46.34375 60 L 17.171875 89.171875 C 15.609375 90.734375 15.609375 93.269531 17.171875 94.828125 L 25.171875 102.828125 C 26.734375 104.390625 29.269531 104.390625 30.828125 102.828125 L 60 73.65625 L 89.171875 102.828125 C 90.730469 104.390625 93.269531 104.390625 94.828125 102.828125 L 102.828125 94.828125 C 104.390625 93.265625 104.390625 90.730469 102.828125 89.171875 L 73.65625 60 L 102.828125 30.828125 C 104.390625 29.269531 104.390625 26.730469 102.828125 25.171875 L 94.828125 17.171875 C 93.265625 15.609375 90.730469 15.609375 89.171875 17.171875 L 60 46.34375 L 30.828125 17.171875 C 30.046875 16.390625 29.023438 16 28 16 Z M 28 16 "/>
</g>
</svg>
