<svg id="svg" version="1.1" xmlns="http://www.w3.org/2000/svg" xmlns:xlink="http://www.w3.org/1999/xlink" width="400" height="400" viewBox="0, 0, 400,400"><g id="svgg"><path id="path0" d="M173.400 88.850 C 172.740 89.060,171.153 89.410,169.874 89.629 C 168.594 89.847,167.244 90.191,166.874 90.394 C 163.526 92.220,162.426 92.238,162.406 90.465 C 162.402 90.128,161.780 90.387,160.721 91.165 C 159.798 91.844,158.898 92.400,158.721 92.400 C 158.545 92.400,158.072 92.715,157.670 93.100 C 157.269 93.485,156.189 94.417,155.270 95.171 C 154.352 95.925,153.600 96.761,153.600 97.028 C 153.600 97.296,153.353 97.609,153.051 97.725 C 152.750 97.841,152.388 98.392,152.248 98.950 C 151.560 101.691,150.524 102.677,148.093 102.906 C 146.832 103.025,145.260 103.409,144.600 103.759 C 143.940 104.109,143.107 104.396,142.749 104.398 C 142.391 104.399,141.874 104.670,141.600 105.000 C 141.326 105.330,140.895 105.600,140.642 105.600 C 140.389 105.600,139.225 106.230,138.056 107.000 C 136.887 107.770,135.758 108.400,135.547 108.400 C 135.329 108.400,135.272 108.976,135.414 109.732 C 135.643 110.956,134.811 112.554,133.189 114.000 C 130.974 115.974,129.240 122.683,130.521 124.317 C 130.799 124.671,130.723 125.736,130.279 127.717 C 127.874 138.436,127.804 148.493,130.051 160.400 C 131.396 167.524,132.205 170.769,133.096 172.606 C 134.117 174.712,133.676 175.736,131.600 176.076 C 130.219 176.303,129.493 176.722,128.478 177.878 L 127.157 179.383 127.311 184.192 C 127.480 189.498,127.842 191.210,129.577 194.906 C 130.221 196.278,130.874 197.940,131.029 198.600 C 131.184 199.260,131.458 199.989,131.638 200.220 C 131.818 200.451,132.088 201.441,132.238 202.420 C 132.388 203.399,132.756 204.686,133.056 205.280 C 133.355 205.874,133.601 206.684,133.602 207.080 C 133.604 207.476,133.874 208.316,134.202 208.946 C 134.531 209.576,134.800 210.276,134.800 210.502 C 134.800 213.016,139.259 218.400,141.341 218.400 C 142.977 218.400,143.845 219.487,144.254 222.048 C 144.404 222.986,144.767 224.213,145.061 224.776 C 145.355 225.339,145.597 226.250,145.600 226.800 C 145.603 227.350,145.874 228.316,146.202 228.946 C 146.531 229.576,146.800 230.336,146.800 230.635 C 146.800 230.935,147.402 232.399,148.138 233.890 C 148.874 235.380,150.156 238.009,150.986 239.732 L 152.496 242.864 152.332 251.652 L 152.168 260.440 150.906 261.620 C 150.211 262.269,149.466 262.800,149.250 262.800 C 149.034 262.800,148.614 263.025,148.318 263.300 C 147.307 264.237,145.234 265.600,144.819 265.600 C 144.592 265.600,142.630 267.365,140.459 269.522 C 134.764 275.181,133.810 275.855,128.200 278.185 C 126.033 279.085,123.228 280.365,121.938 281.042 C 121.354 281.349,120.669 281.600,120.416 281.600 C 120.163 281.600,119.201 281.928,118.278 282.329 C 117.355 282.730,115.790 283.388,114.800 283.792 C 113.810 284.195,111.875 285.037,110.499 285.662 C 109.123 286.288,107.807 286.800,107.573 286.800 C 107.188 286.800,105.010 287.630,101.800 288.999 C 98.357 290.468,97.691 290.716,96.471 290.984 C 95.743 291.144,94.663 291.527,94.073 291.835 C 93.483 292.143,92.790 292.396,92.532 292.398 C 92.275 292.399,91.555 292.652,90.932 292.961 C 89.515 293.662,85.999 294.800,85.200 294.816 C 84.870 294.822,83.880 295.175,83.000 295.600 C 82.120 296.025,81.040 296.385,80.600 296.401 C 80.160 296.416,79.350 296.686,78.800 297.000 C 78.250 297.314,77.440 297.579,77.000 297.588 C 76.560 297.597,75.684 297.874,75.054 298.202 C 74.424 298.531,73.614 298.806,73.254 298.814 C 72.894 298.821,71.880 299.175,71.000 299.600 C 70.120 300.025,69.223 300.379,69.007 300.386 C 68.790 300.394,67.530 300.914,66.207 301.543 C 64.883 302.171,63.350 302.884,62.800 303.127 C 56.933 305.716,44.400 315.099,44.400 316.903 C 44.400 317.028,43.770 318.087,43.000 319.256 C 42.230 320.425,41.600 321.679,41.600 322.042 C 41.600 322.405,41.330 322.926,41.000 323.200 C 40.670 323.474,40.399 323.991,40.398 324.349 C 40.396 324.707,40.113 325.540,39.768 326.200 C 39.146 327.391,38.831 328.566,38.002 332.800 C 37.765 334.010,37.384 335.810,37.156 336.800 C 35.437 344.254,34.762 356.789,34.892 378.800 L 35.000 397.000 37.200 397.260 C 41.919 397.819,345.872 397.636,346.338 397.075 C 347.293 395.924,348.060 347.524,347.201 342.600 C 346.200 336.865,344.253 329.501,342.953 326.540 C 342.649 325.846,342.400 325.139,342.400 324.969 C 342.400 324.654,339.547 318.864,338.670 317.400 C 335.444 312.012,331.854 308.063,328.437 306.143 C 327.317 305.515,326.401 304.865,326.400 304.700 C 326.400 304.535,326.082 304.400,325.694 304.400 C 325.306 304.400,324.316 304.040,323.496 303.600 C 322.675 303.160,321.747 302.800,321.434 302.800 C 321.121 302.800,320.355 302.552,319.732 302.249 C 319.110 301.946,317.970 301.431,317.200 301.106 C 316.430 300.780,314.970 300.128,313.956 299.657 C 312.942 299.186,311.928 298.800,311.702 298.800 C 311.476 298.800,310.776 298.531,310.146 298.202 C 309.516 297.874,308.719 297.604,308.376 297.602 C 308.034 297.601,307.404 297.336,306.976 297.013 C 306.549 296.690,305.950 296.420,305.644 296.413 C 305.125 296.401,302.915 295.476,300.268 294.162 C 299.645 293.853,298.826 293.600,298.448 293.600 C 298.069 293.600,297.589 293.442,297.380 293.250 C 297.007 292.905,293.353 291.307,290.200 290.108 C 288.192 289.344,286.701 288.715,284.356 287.643 C 283.342 287.179,282.228 286.800,281.880 286.800 C 281.532 286.800,281.148 286.640,281.027 286.444 C 280.906 286.249,280.311 285.972,279.704 285.831 C 279.097 285.689,278.015 285.309,277.300 284.986 C 276.585 284.664,275.415 284.136,274.700 283.813 C 273.287 283.175,270.552 282.180,268.514 281.561 C 267.807 281.346,267.122 280.997,266.991 280.785 C 266.860 280.573,266.448 280.394,266.076 280.386 C 265.704 280.379,264.680 280.025,263.800 279.600 C 262.920 279.175,261.996 278.821,261.746 278.814 C 261.496 278.806,260.776 278.531,260.146 278.202 C 259.516 277.874,258.635 277.604,258.189 277.602 C 257.743 277.601,257.023 277.357,256.589 277.061 C 256.155 276.764,255.246 276.415,254.568 276.284 C 251.385 275.672,246.637 271.856,241.600 265.863 C 240.390 264.424,239.262 263.236,239.092 263.223 C 238.763 263.198,235.576 260.877,233.496 259.146 C 230.628 256.759,231.153 245.408,234.437 238.789 C 235.636 236.372,236.251 234.777,237.825 230.000 C 239.567 224.717,239.938 223.459,240.633 220.488 C 241.434 217.063,241.514 216.986,243.457 217.798 L 244.950 218.422 247.017 216.236 C 248.665 214.493,249.270 213.459,250.005 211.125 C 250.512 209.516,251.058 208.020,251.218 207.800 C 251.708 207.127,253.173 201.011,254.173 195.463 C 254.695 192.569,255.858 188.071,256.759 185.469 L 258.396 180.738 257.540 178.749 C 256.612 176.591,255.260 175.600,253.247 175.600 C 251.852 175.600,251.372 174.652,251.971 173.077 C 255.234 164.494,255.553 145.288,252.584 136.200 C 252.296 135.320,251.934 133.970,251.779 133.200 C 251.625 132.430,251.251 131.445,250.949 131.011 C 250.647 130.577,250.400 129.908,250.400 129.523 C 250.400 129.139,250.057 128.144,249.638 127.312 C 249.219 126.481,248.214 124.450,247.404 122.800 C 245.312 118.534,244.682 117.510,241.375 113.000 C 236.001 105.670,229.202 100.494,220.400 97.034 C 219.410 96.645,218.060 96.084,217.400 95.789 C 216.263 95.280,215.311 95.029,210.600 94.001 C 209.500 93.761,207.790 93.370,206.800 93.132 C 205.810 92.894,203.380 92.456,201.400 92.158 C 199.420 91.860,196.900 91.444,195.800 91.232 C 194.700 91.021,192.251 90.837,190.359 90.824 C 184.160 90.781,181.985 90.413,181.577 89.340 C 181.183 88.303,176.081 87.998,173.400 88.850 " stroke="none" fill="#fbfbfb" fill-rule="evenodd"></path><path id="path1" d="M1.693 0.800 C 1.418 1.240,0.925 1.600,0.597 1.600 C 0.069 1.600,0.000 24.269,0.000 198.739 L 0.000 395.878 0.900 396.312 L 1.800 396.746 0.900 396.773 C -0.318 396.810,-0.318 398.222,0.900 398.548 C 2.073 398.862,32.542 398.874,33.360 398.560 C 33.863 398.367,33.898 398.156,33.535 397.479 C 32.496 395.537,33.633 346.682,34.845 341.200 C 35.064 340.210,35.483 338.140,35.776 336.600 C 37.010 330.111,37.290 328.956,37.831 328.114 C 38.144 327.627,38.400 326.704,38.400 326.063 C 38.400 325.422,38.670 324.674,39.000 324.400 C 39.330 324.126,39.600 323.644,39.600 323.328 C 39.600 322.612,41.635 318.915,43.397 316.432 C 44.120 315.412,50.686 308.800,50.976 308.800 C 51.130 308.800,51.508 308.575,51.815 308.300 C 52.899 307.328,53.430 306.970,56.270 305.294 C 57.848 304.362,59.318 303.600,59.537 303.600 C 59.755 303.600,59.993 303.443,60.067 303.251 C 60.225 302.836,66.753 299.600,67.432 299.600 C 67.690 299.600,68.126 299.330,68.400 299.000 C 68.674 298.670,69.367 298.400,69.941 298.400 C 70.865 298.400,74.253 297.280,76.051 296.380 C 76.409 296.201,77.399 295.930,78.251 295.777 C 79.103 295.624,80.070 295.275,80.400 295.002 C 80.730 294.729,81.791 294.405,82.758 294.283 C 83.724 294.161,84.625 293.884,84.759 293.667 C 84.892 293.451,85.721 293.143,86.601 292.985 C 87.480 292.826,88.380 292.560,88.600 292.394 C 88.820 292.228,89.630 291.959,90.400 291.795 C 91.170 291.632,92.155 291.251,92.589 290.949 C 93.023 290.647,93.649 290.400,93.981 290.400 C 94.543 290.400,97.320 289.401,100.260 288.140 C 100.954 287.843,101.732 287.600,101.989 287.600 C 102.246 287.600,102.727 287.330,103.057 287.000 C 103.387 286.670,104.042 286.400,104.512 286.400 C 105.411 286.400,110.327 284.440,116.444 281.643 C 117.458 281.179,118.472 280.800,118.698 280.800 C 118.924 280.800,119.624 280.531,120.254 280.202 C 120.884 279.874,121.715 279.604,122.100 279.602 C 122.485 279.601,122.800 279.423,122.800 279.208 C 122.800 278.992,123.295 278.695,123.900 278.548 C 124.505 278.401,125.355 278.037,125.789 277.740 C 126.223 277.443,126.856 277.200,127.195 277.200 C 127.534 277.200,128.484 276.840,129.304 276.400 C 130.125 275.960,131.068 275.600,131.399 275.600 C 131.729 275.600,132.000 275.432,132.000 275.227 C 132.000 275.022,132.380 274.733,132.844 274.586 C 133.664 274.326,135.209 272.949,140.237 268.001 C 142.448 265.825,148.057 261.724,149.669 261.106 C 151.220 260.511,151.236 242.189,149.688 240.221 C 149.199 239.600,148.800 238.756,148.800 238.346 C 148.800 237.936,148.640 237.600,148.443 237.600 C 148.247 237.600,147.963 237.105,147.812 236.500 C 147.661 235.895,147.317 235.130,147.047 234.800 C 146.778 234.470,146.149 232.940,145.650 231.400 C 145.151 229.860,144.579 228.293,144.379 227.917 C 144.179 227.542,143.895 226.485,143.749 225.569 C 143.296 222.739,141.957 220.665,140.374 220.342 C 138.894 220.040,137.394 218.524,136.149 216.073 C 135.737 215.263,135.175 214.456,134.900 214.280 C 134.625 214.104,134.400 213.699,134.400 213.379 C 134.400 213.059,134.040 212.125,133.600 211.304 C 133.160 210.484,132.800 209.605,132.800 209.352 C 132.800 209.099,132.531 208.376,132.202 207.746 C 131.874 207.116,131.598 206.060,131.590 205.400 C 131.581 204.740,131.310 203.851,130.987 203.424 C 130.664 202.996,130.400 202.100,130.400 201.431 C 130.400 200.114,128.912 196.127,128.101 195.271 C 127.825 194.981,127.600 194.235,127.600 193.614 C 127.600 192.993,127.357 192.392,127.061 192.279 C 126.038 191.886,125.493 184.348,126.165 179.887 C 126.519 177.536,128.801 175.024,130.846 174.735 C 131.936 174.580,132.055 172.386,131.036 171.217 C 130.740 170.878,130.374 169.700,130.223 168.600 C 130.072 167.500,129.784 166.060,129.583 165.400 C 126.962 156.812,126.140 132.124,128.384 129.419 C 128.981 128.700,128.983 125.931,128.387 124.300 C 127.961 123.133,127.946 122.694,128.320 122.320 C 128.584 122.056,128.801 121.291,128.801 120.620 C 128.802 119.949,129.162 118.811,129.601 118.090 C 130.041 117.370,130.400 116.598,130.400 116.374 C 130.400 115.854,132.044 113.500,132.700 113.080 C 133.392 112.637,133.328 111.335,132.600 111.055 C 131.394 110.593,133.628 107.600,135.179 107.600 C 135.410 107.600,135.600 107.441,135.600 107.246 C 135.600 106.784,140.959 103.600,141.737 103.600 C 142.065 103.600,142.397 103.410,142.474 103.179 C 142.638 102.686,144.904 102.068,147.986 101.677 C 150.109 101.408,150.182 101.357,150.525 99.900 C 150.720 99.075,151.042 98.400,151.240 98.400 C 151.438 98.400,151.600 98.150,151.600 97.845 C 151.600 96.997,157.056 91.600,157.914 91.600 C 158.134 91.600,158.418 91.330,158.545 91.000 C 158.671 90.670,159.038 90.400,159.359 90.400 C 159.680 90.400,160.186 90.175,160.482 89.900 C 162.850 87.705,164.384 87.331,165.411 88.697 C 165.743 89.140,166.163 89.157,167.611 88.789 C 168.595 88.538,170.390 88.159,171.600 87.946 C 172.810 87.732,174.340 87.383,175.000 87.169 C 179.642 85.662,196.678 86.419,195.307 88.071 C 194.266 89.326,195.708 90.046,200.011 90.420 C 202.253 90.615,204.292 90.935,204.543 91.132 C 204.794 91.330,206.068 91.611,207.374 91.758 C 208.679 91.904,209.939 92.178,210.174 92.367 C 210.408 92.555,211.410 92.838,212.400 92.996 C 214.551 93.338,218.846 94.714,219.380 95.232 C 219.589 95.434,220.101 95.600,220.518 95.600 C 220.935 95.600,221.754 95.844,222.338 96.142 C 222.922 96.440,224.434 97.205,225.699 97.842 C 226.963 98.479,227.998 99.115,227.999 99.257 C 227.999 99.398,228.450 99.626,229.000 99.764 C 229.550 99.902,230.000 100.192,230.000 100.408 C 230.000 100.623,230.214 100.800,230.475 100.800 C 231.224 100.800,233.594 102.546,233.597 103.100 C 233.599 103.375,233.880 103.600,234.223 103.600 C 234.565 103.600,236.276 105.040,238.024 106.800 C 239.772 108.560,241.382 110.000,241.601 110.000 C 241.821 110.000,242.000 110.283,242.000 110.629 C 242.000 110.974,242.225 111.500,242.500 111.796 C 242.775 112.093,243.360 112.812,243.800 113.393 C 244.240 113.975,244.915 114.799,245.300 115.225 C 245.685 115.651,246.000 116.180,246.000 116.400 C 246.000 116.620,246.172 116.800,246.382 116.800 C 246.592 116.800,246.882 117.430,247.026 118.200 C 247.171 118.970,247.518 119.600,247.798 119.600 C 248.078 119.600,248.404 119.973,248.524 120.430 C 248.643 120.886,249.095 121.352,249.527 121.465 C 250.190 121.638,250.281 121.918,250.105 123.235 C 249.920 124.609,249.994 124.800,250.705 124.800 C 251.532 124.800,252.000 125.512,252.000 126.770 C 252.000 127.158,252.440 127.987,252.977 128.613 C 254.155 129.984,255.216 132.755,255.491 135.179 C 255.602 136.158,256.063 137.459,256.515 138.070 C 257.211 139.011,257.265 139.339,256.868 140.210 C 256.192 141.695,256.276 142.192,257.444 143.579 C 258.350 144.656,258.453 145.052,258.224 146.583 C 258.052 147.724,258.134 148.625,258.455 149.140 C 259.099 150.171,258.363 164.973,257.597 166.405 C 256.601 168.266,256.050 171.544,256.649 172.041 C 257.327 172.604,256.993 173.200,256.000 173.200 C 254.846 173.200,254.640 173.955,255.676 174.387 C 256.773 174.845,258.000 175.779,258.000 176.158 C 258.000 176.306,258.496 176.916,259.103 177.513 C 260.872 179.258,262.503 183.223,261.779 184.023 C 261.461 184.375,261.200 184.970,261.200 185.346 C 261.200 185.721,260.930 186.440,260.600 186.944 C 259.440 188.715,257.981 193.812,257.815 196.677 C 257.723 198.265,257.462 199.910,257.236 200.333 C 257.010 200.756,256.443 202.879,255.977 205.051 C 255.511 207.223,254.786 209.788,254.365 210.751 C 253.944 211.714,253.600 212.889,253.600 213.362 C 253.600 213.835,253.240 214.530,252.800 214.907 C 252.360 215.284,252.000 215.892,252.000 216.258 C 252.000 218.308,248.256 220.991,246.020 220.544 C 244.650 220.270,244.230 220.884,243.863 223.701 C 243.727 224.747,243.248 226.321,242.800 227.200 C 242.352 228.079,241.874 229.606,241.739 230.594 C 241.603 231.583,241.247 232.595,240.946 232.845 C 240.646 233.094,240.400 233.884,240.400 234.600 C 240.400 235.316,240.140 236.118,239.822 236.382 C 239.504 236.646,239.043 237.829,238.798 239.011 C 238.552 240.193,237.921 241.794,237.395 242.569 C 236.295 244.190,235.674 247.173,235.380 252.241 C 235.266 254.199,235.069 256.293,234.941 256.895 C 234.774 257.684,234.889 258.059,235.354 258.238 C 235.709 258.374,236.000 258.707,236.000 258.979 C 236.000 259.250,236.405 259.664,236.900 259.899 C 238.629 260.720,242.767 264.584,246.074 268.465 C 247.482 270.118,247.602 270.175,248.772 269.733 C 249.445 269.479,250.082 269.410,250.187 269.580 C 250.463 270.025,249.981 270.400,249.133 270.400 C 248.146 270.400,248.197 271.482,249.200 271.800 C 249.640 271.940,250.000 272.222,250.000 272.427 C 250.000 272.632,250.242 272.800,250.539 272.800 C 250.835 272.800,251.493 273.160,252.000 273.600 C 252.507 274.040,253.332 274.400,253.833 274.400 C 254.333 274.400,255.013 274.670,255.343 275.000 C 255.673 275.330,256.371 275.600,256.895 275.600 C 257.419 275.600,258.196 275.864,258.624 276.187 C 259.051 276.510,259.760 276.786,260.200 276.801 C 260.640 276.815,261.720 277.175,262.600 277.600 C 263.480 278.025,264.592 278.379,265.071 278.386 C 265.551 278.394,266.213 278.670,266.543 279.000 C 266.873 279.330,267.443 279.600,267.810 279.600 C 268.176 279.600,268.954 279.861,269.538 280.179 C 271.390 281.190,274.476 282.400,275.202 282.400 C 275.587 282.400,276.126 282.670,276.400 283.000 C 276.674 283.330,277.164 283.600,277.489 283.600 C 278.147 283.600,280.238 284.448,282.479 285.624 C 283.293 286.051,284.293 286.400,284.703 286.400 C 285.112 286.400,285.796 286.664,286.224 286.987 C 286.651 287.310,287.270 287.586,287.600 287.601 C 287.930 287.615,288.920 287.975,289.800 288.400 C 290.680 288.825,291.638 289.179,291.929 289.186 C 292.219 289.194,292.727 289.470,293.057 289.800 C 293.387 290.130,294.190 290.400,294.841 290.400 C 295.525 290.400,296.122 290.654,296.255 291.000 C 296.382 291.330,296.781 291.601,297.143 291.602 C 297.504 291.604,298.316 291.874,298.946 292.202 C 299.576 292.531,300.269 292.800,300.485 292.800 C 300.702 292.800,301.446 293.054,302.140 293.366 C 302.833 293.677,304.075 294.140,304.900 294.397 C 305.725 294.653,306.400 295.028,306.400 295.231 C 306.400 295.434,306.777 295.600,307.238 295.600 C 308.063 295.600,308.533 295.795,311.879 297.530 C 312.803 298.008,313.906 298.400,314.330 298.400 C 314.755 298.400,315.326 298.670,315.600 299.000 C 315.874 299.330,316.453 299.600,316.887 299.600 C 317.321 299.600,318.154 299.857,318.738 300.171 C 319.322 300.484,321.195 301.228,322.900 301.824 C 324.605 302.420,326.000 303.049,326.000 303.222 C 326.000 303.395,326.540 303.655,327.200 303.800 C 327.860 303.945,328.400 304.229,328.400 304.432 C 328.400 304.634,328.644 304.800,328.942 304.800 C 329.783 304.800,334.800 308.767,334.800 309.431 C 334.800 309.810,336.942 311.834,337.867 312.329 C 338.425 312.627,338.821 313.341,338.993 314.357 C 339.154 315.309,339.713 316.371,340.418 317.062 C 341.056 317.688,341.693 318.785,341.834 319.500 C 341.975 320.220,342.337 320.800,342.645 320.800 C 342.950 320.800,343.200 321.179,343.200 321.642 C 343.200 322.106,343.629 322.822,344.153 323.235 C 344.791 323.737,345.196 324.581,345.377 325.788 C 345.526 326.779,345.907 327.850,346.224 328.167 C 346.541 328.484,346.800 328.898,346.800 329.087 C 346.800 329.276,347.166 330.144,347.614 331.015 C 348.189 332.137,348.358 333.015,348.192 334.019 C 348.007 335.134,348.133 335.596,348.779 336.181 C 349.230 336.589,349.600 337.408,349.600 337.999 C 349.600 338.591,349.962 340.126,350.403 341.410 C 351.186 343.683,351.201 344.438,350.980 369.840 C 350.765 394.719,350.788 395.954,351.477 396.355 C 352.097 396.716,352.026 396.777,350.976 396.788 C 349.603 396.801,348.024 397.757,348.534 398.267 C 348.914 398.648,396.722 398.968,398.700 398.604 C 400.263 398.315,400.544 396.963,399.100 396.679 L 398.200 396.502 399.100 396.204 L 400.000 395.907 400.000 231.353 C 400.000 137.064,399.850 66.800,399.649 66.800 C 399.455 66.800,399.091 66.305,398.839 65.700 C 398.401 64.648,396.400 63.284,396.400 64.038 C 396.400 64.578,394.249 64.475,393.513 63.900 C 393.047 63.536,392.967 63.159,393.219 62.512 C 393.621 61.482,395.367 60.909,396.143 61.552 C 396.538 61.880,397.102 61.814,398.333 61.297 C 399.823 60.671,400.622 59.600,399.600 59.600 C 399.380 59.600,399.200 59.240,399.200 58.800 C 399.200 58.360,399.380 58.000,399.600 58.000 C 400.242 58.000,400.143 7.724,399.500 7.465 C 399.100 7.304,399.100 7.257,399.500 7.232 C 399.848 7.210,399.999 6.378,399.997 4.500 C 399.993 1.481,399.354 0.800,396.520 0.800 C 395.794 0.800,395.200 0.620,395.200 0.400 C 395.200 -0.510,2.262 -0.111,1.693 0.800 M387.521 63.542 C 386.924 63.769,386.678 63.291,386.994 62.517 C 387.266 61.848,387.306 61.854,387.589 62.600 C 387.756 63.040,387.726 63.464,387.521 63.542 M391.928 63.100 C 392.024 63.774,391.856 64.000,391.261 64.000 C 389.857 64.000,389.277 63.590,389.496 62.753 C 389.800 61.593,391.753 61.872,391.928 63.100 M249.600 117.994 C 249.600 118.163,249.346 118.513,249.036 118.770 C 248.366 119.326,247.800 118.698,248.149 117.788 C 248.368 117.219,249.600 117.394,249.600 117.994 M147.972 257.900 C 147.862 259.073,147.254 259.726,147.228 258.700 C 147.213 258.095,147.380 257.600,147.600 257.600 C 147.820 257.600,147.987 257.735,147.972 257.900 " stroke="none" fill="#b4b4b4" fill-rule="evenodd"></path><path id="path2" d="M0.000 0.800 C 0.000 1.691,0.784 1.856,1.520 1.120 C 2.266 0.374,2.092 0.000,1.000 0.000 C 0.267 0.000,0.000 0.213,0.000 0.800 M395.200 0.400 C 395.200 0.620,395.909 0.800,396.776 0.800 C 397.643 0.800,398.464 0.980,398.600 1.200 C 399.035 1.904,400.000 1.628,400.000 0.800 C 400.000 0.089,399.733 0.000,397.600 0.000 C 396.267 0.000,395.200 0.178,395.200 0.400 M399.200 58.800 C 399.200 59.240,399.380 59.600,399.600 59.600 C 399.820 59.600,400.000 59.240,400.000 58.800 C 400.000 58.360,399.820 58.000,399.600 58.000 C 399.380 58.000,399.200 58.360,399.200 58.800 M397.873 61.443 C 396.998 61.917,396.619 61.948,396.178 61.582 C 395.370 60.911,393.630 61.457,393.219 62.512 C 392.967 63.159,393.047 63.536,393.513 63.900 C 394.249 64.475,396.400 64.578,396.400 64.038 C 396.400 63.284,398.401 64.648,398.839 65.700 C 399.469 67.213,400.000 67.079,400.000 65.408 C 400.000 64.256,399.827 63.972,399.000 63.764 C 398.450 63.626,398.000 63.383,398.000 63.224 C 398.000 63.065,398.450 62.694,399.000 62.400 C 400.039 61.844,400.373 60.788,399.500 60.816 C 399.225 60.825,398.493 61.107,397.873 61.443 M386.994 62.517 C 386.678 63.291,386.924 63.769,387.521 63.542 C 387.726 63.464,387.756 63.040,387.589 62.600 C 387.306 61.854,387.266 61.848,386.994 62.517 M389.496 62.753 C 389.277 63.590,389.857 64.000,391.261 64.000 C 391.856 64.000,392.024 63.774,391.928 63.100 C 391.753 61.872,389.800 61.593,389.496 62.753 M395.687 63.673 C 395.146 64.214,394.651 63.364,394.991 62.481 C 395.233 61.853,395.286 61.858,395.668 62.539 C 395.942 63.026,395.948 63.412,395.687 63.673 M177.932 86.763 C 173.595 87.148,174.177 87.736,178.600 87.437 C 180.800 87.288,183.050 87.140,183.600 87.107 C 186.145 86.953,191.731 87.318,190.432 87.553 C 187.183 88.140,189.783 89.753,194.602 90.140 C 196.141 90.264,197.044 90.262,196.610 90.136 C 195.460 89.802,194.764 88.725,195.290 88.091 C 196.528 86.599,187.527 85.910,177.932 86.763 M162.400 88.417 C 161.850 88.847,161.180 89.382,160.911 89.606 C 160.641 89.829,159.966 90.185,159.411 90.396 C 158.855 90.607,158.400 90.965,158.400 91.190 C 158.400 91.416,158.200 91.600,157.956 91.600 C 157.158 91.600,151.600 96.935,151.600 97.702 C 151.600 97.928,152.339 97.273,153.242 96.248 C 155.053 94.189,158.254 91.647,161.544 89.653 C 163.714 88.337,164.186 88.315,164.195 89.528 C 164.201 90.378,164.371 90.365,168.000 89.238 C 169.650 88.725,171.810 88.168,172.800 88.000 C 174.158 87.769,174.305 87.685,173.400 87.657 C 172.740 87.636,171.480 87.805,170.600 88.032 C 165.841 89.261,165.835 89.262,165.409 88.680 C 164.687 87.693,163.462 87.586,162.400 88.417 M199.200 90.803 C 202.984 91.576,205.029 91.734,204.545 91.217 C 204.284 90.937,202.670 90.668,200.745 90.583 C 197.918 90.459,197.679 90.493,199.200 90.803 M206.400 92.003 C 207.170 92.217,209.240 92.739,211.000 93.163 C 216.526 94.494,217.421 94.755,218.626 95.383 C 219.272 95.720,220.025 95.996,220.299 95.998 C 220.901 96.001,225.799 98.274,227.200 99.201 C 227.750 99.565,229.265 100.566,230.567 101.426 C 235.350 104.586,240.456 109.665,243.600 114.391 C 243.930 114.887,244.515 115.705,244.899 116.209 C 245.284 116.712,246.592 119.061,247.806 121.429 C 249.019 123.796,250.175 125.929,250.374 126.169 C 250.573 126.408,250.868 127.131,251.030 127.776 C 251.191 128.420,251.565 129.409,251.859 129.973 C 252.154 130.538,252.396 131.332,252.398 131.738 C 252.399 132.144,252.662 132.954,252.982 133.538 C 253.573 134.617,254.144 136.834,254.853 140.800 C 255.070 142.010,255.416 143.552,255.623 144.227 C 256.245 146.255,256.492 155.924,256.016 159.600 C 255.774 161.470,255.432 164.170,255.256 165.600 C 255.080 167.030,254.750 168.560,254.523 169.000 C 253.460 171.061,253.563 174.001,254.717 174.513 C 258.539 176.210,260.460 181.374,258.598 184.946 C 258.269 185.576,258.000 186.782,258.000 187.626 C 258.000 188.470,257.765 189.304,257.477 189.480 C 256.900 189.833,255.847 193.892,255.212 198.211 C 253.403 210.510,249.835 218.416,245.821 219.018 C 243.426 219.377,242.787 220.231,241.172 225.226 C 240.460 227.427,239.726 229.322,239.539 229.438 C 239.353 229.553,239.200 230.299,239.200 231.095 C 239.200 232.664,238.628 234.812,237.788 236.400 C 233.728 244.075,233.456 245.127,233.541 252.800 C 233.605 258.434,233.332 257.891,237.758 261.200 C 240.150 262.988,241.058 263.866,245.165 268.354 C 248.016 271.470,251.454 274.400,252.260 274.400 C 252.380 274.400,253.098 274.694,253.854 275.052 C 254.610 275.411,255.352 275.581,255.503 275.431 C 255.878 275.055,254.787 274.414,253.761 274.406 C 253.300 274.403,252.507 274.040,252.000 273.600 C 251.493 273.160,250.835 272.800,250.539 272.800 C 250.242 272.800,250.000 272.632,250.000 272.427 C 250.000 272.222,249.640 271.940,249.200 271.800 C 248.174 271.474,248.156 270.400,249.176 270.400 C 249.603 270.400,250.049 270.245,250.166 270.056 C 250.560 269.417,249.961 269.284,248.751 269.741 C 247.607 270.173,247.474 270.109,246.074 268.465 C 242.767 264.584,238.629 260.720,236.900 259.899 C 236.405 259.664,236.000 259.250,236.000 258.979 C 236.000 258.707,235.709 258.374,235.354 258.238 C 234.889 258.059,234.774 257.684,234.941 256.895 C 235.069 256.293,235.266 254.199,235.380 252.241 C 235.674 247.173,236.295 244.190,237.395 242.569 C 237.921 241.794,238.552 240.193,238.798 239.011 C 239.043 237.829,239.504 236.646,239.822 236.382 C 240.140 236.118,240.400 235.316,240.400 234.600 C 240.400 233.884,240.646 233.094,240.946 232.845 C 241.247 232.595,241.603 231.583,241.739 230.594 C 241.874 229.606,242.352 228.079,242.800 227.200 C 243.248 226.321,243.727 224.747,243.863 223.701 C 244.230 220.884,244.650 220.270,246.020 220.544 C 248.256 220.991,252.000 218.308,252.000 216.258 C 252.000 215.892,252.360 215.284,252.800 214.907 C 253.240 214.530,253.600 213.835,253.600 213.362 C 253.600 212.889,253.944 211.714,254.365 210.751 C 254.786 209.788,255.511 207.223,255.977 205.051 C 256.443 202.879,257.010 200.756,257.236 200.333 C 257.462 199.910,257.723 198.265,257.815 196.677 C 257.981 193.812,259.440 188.715,260.600 186.944 C 260.930 186.440,261.200 185.721,261.200 185.346 C 261.200 184.970,261.461 184.375,261.779 184.023 C 262.503 183.223,260.872 179.258,259.103 177.513 C 258.496 176.916,258.000 176.306,258.000 176.158 C 258.000 175.779,256.773 174.845,255.676 174.387 C 254.640 173.955,254.846 173.200,256.000 173.200 C 256.993 173.200,257.327 172.604,256.649 172.041 C 256.050 171.544,256.601 168.266,257.597 166.405 C 258.363 164.973,259.099 150.171,258.455 149.140 C 258.134 148.625,258.052 147.724,258.224 146.583 C 258.453 145.052,258.350 144.656,257.444 143.579 C 256.276 142.192,256.192 141.695,256.868 140.210 C 257.265 139.339,257.211 139.011,256.515 138.070 C 256.063 137.459,255.602 136.158,255.491 135.179 C 255.216 132.755,254.155 129.984,252.977 128.613 C 252.440 127.987,252.000 127.158,252.000 126.770 C 252.000 125.512,251.532 124.800,250.705 124.800 C 249.994 124.800,249.920 124.609,250.105 123.235 C 250.281 121.918,250.190 121.638,249.527 121.465 C 249.095 121.352,248.643 120.886,248.524 120.430 C 248.404 119.973,248.078 119.600,247.798 119.600 C 247.518 119.600,247.171 118.970,247.026 118.200 C 246.882 117.430,246.592 116.800,246.382 116.800 C 246.172 116.800,246.000 116.620,246.000 116.400 C 246.000 116.180,245.685 115.651,245.300 115.225 C 244.915 114.799,244.240 113.975,243.800 113.393 C 243.360 112.812,242.775 112.093,242.500 111.796 C 242.225 111.500,242.000 110.974,242.000 110.629 C 242.000 110.283,241.821 110.000,241.601 110.000 C 241.382 110.000,239.772 108.560,238.024 106.800 C 236.276 105.040,234.565 103.600,234.223 103.600 C 233.880 103.600,233.599 103.375,233.597 103.100 C 233.594 102.546,231.224 100.800,230.475 100.800 C 230.214 100.800,230.000 100.623,230.000 100.408 C 230.000 100.192,229.550 99.902,229.000 99.764 C 228.450 99.626,227.999 99.398,227.999 99.257 C 227.998 99.115,226.963 98.479,225.699 97.842 C 224.434 97.205,222.922 96.440,222.338 96.142 C 221.754 95.844,220.935 95.600,220.518 95.600 C 220.101 95.600,219.589 95.434,219.380 95.232 C 218.846 94.714,214.551 93.338,212.400 92.996 C 211.410 92.838,210.408 92.555,210.174 92.367 C 209.939 92.178,208.679 91.932,207.374 91.819 C 205.359 91.644,205.212 91.672,206.400 92.003 M150.652 99.300 C 150.241 100.833,150.379 101.050,151.002 99.854 C 151.699 98.519,151.719 98.400,151.247 98.400 C 151.052 98.400,150.785 98.805,150.652 99.300 M148.000 101.630 C 144.748 102.110,142.632 102.703,142.474 103.179 C 142.397 103.410,142.065 103.600,141.737 103.600 C 140.959 103.600,135.600 106.784,135.600 107.246 C 135.600 107.441,135.410 107.600,135.179 107.600 C 133.628 107.600,131.394 110.593,132.600 111.055 C 133.328 111.335,133.392 112.637,132.700 113.080 C 131.972 113.546,130.399 115.881,130.407 116.484 C 130.410 116.768,130.807 116.370,131.287 115.600 C 131.767 114.830,132.666 113.572,133.284 112.804 L 134.407 111.409 133.510 110.732 C 133.016 110.359,132.699 109.989,132.806 109.908 C 132.913 109.827,133.901 109.050,135.002 108.181 C 138.848 105.144,143.492 102.898,147.272 102.249 C 148.741 101.996,150.076 101.657,150.239 101.495 C 150.401 101.333,150.458 101.224,150.367 101.252 C 150.275 101.281,149.210 101.451,148.000 101.630 M129.429 118.343 C 129.083 119.012,128.800 120.073,128.800 120.700 C 128.800 121.327,128.584 122.056,128.320 122.320 C 127.946 122.694,127.961 123.133,128.387 124.300 C 128.983 125.931,128.981 128.700,128.384 129.419 C 127.443 130.553,126.342 148.853,127.130 150.260 C 127.368 150.686,127.568 147.967,127.695 142.559 C 127.850 135.963,128.081 133.314,128.790 130.001 C 129.524 126.572,129.606 125.571,129.233 124.542 C 128.715 123.109,129.018 120.382,129.885 118.663 C 130.201 118.037,130.369 117.436,130.259 117.326 C 130.149 117.216,129.776 117.673,129.429 118.343 M248.149 117.788 C 247.800 118.698,248.366 119.326,249.036 118.770 C 249.767 118.164,249.750 117.743,248.985 117.450 C 248.640 117.317,248.273 117.466,248.149 117.788 M127.667 153.258 C 127.604 155.386,128.766 162.767,129.578 165.400 C 129.782 166.060,130.072 167.500,130.223 168.600 C 130.374 169.700,130.740 170.878,131.036 171.217 C 132.055 172.386,131.936 174.580,130.846 174.735 C 130.321 174.809,129.630 175.079,129.310 175.335 C 127.653 176.661,126.400 178.099,126.400 178.674 C 126.400 179.054,126.867 178.677,127.532 177.760 C 128.613 176.272,129.207 175.858,131.695 174.861 L 132.791 174.421 131.728 171.511 C 131.144 169.910,130.529 167.880,130.361 167.000 C 129.320 161.526,128.022 153.963,127.890 152.600 C 127.762 151.286,127.722 151.404,127.667 153.258 M125.848 182.900 C 125.712 184.715,125.763 186.830,125.960 187.600 C 126.235 188.674,126.328 187.904,126.359 184.300 C 126.407 178.808,126.197 178.232,125.848 182.900 M126.454 190.476 C 126.425 191.288,126.592 192.071,126.827 192.216 C 127.451 192.603,127.783 192.103,127.295 191.510 C 127.065 191.229,126.794 190.550,126.693 190.000 C 126.555 189.251,126.495 189.371,126.454 190.476 M127.640 193.671 C 127.618 194.261,127.832 194.981,128.115 195.271 C 128.398 195.562,128.969 196.697,129.384 197.794 C 129.798 198.890,130.204 199.587,130.286 199.343 C 130.367 199.099,129.941 197.842,129.338 196.549 C 128.735 195.257,128.115 193.840,127.961 193.400 C 127.719 192.713,127.674 192.751,127.640 193.671 M130.454 201.224 C 130.425 202.006,130.664 202.996,130.987 203.424 C 131.565 204.188,131.575 204.187,131.587 203.380 C 131.594 202.929,131.435 202.389,131.234 202.180 C 131.032 201.971,130.787 201.350,130.688 200.800 C 130.551 200.032,130.496 200.131,130.454 201.224 M131.611 205.400 C 131.608 206.060,131.846 207.062,132.141 207.627 C 132.435 208.191,132.805 209.167,132.963 209.794 C 133.120 210.422,133.529 211.310,133.870 211.767 C 134.468 212.569,134.483 212.570,134.258 211.800 C 133.203 208.183,131.616 204.347,131.611 205.400 M134.400 213.348 C 134.400 214.006,135.118 214.615,135.474 214.259 C 135.596 214.138,135.404 213.747,135.048 213.390 C 134.488 212.831,134.400 212.825,134.400 213.348 M135.600 215.029 C 135.600 216.543,138.774 220.014,140.476 220.362 C 141.951 220.664,143.310 222.827,143.749 225.569 C 143.895 226.485,144.179 227.542,144.379 227.917 C 144.579 228.293,145.151 229.860,145.650 231.400 C 146.149 232.940,146.778 234.470,147.047 234.800 C 147.317 235.130,147.661 235.895,147.812 236.500 C 147.963 237.105,148.247 237.600,148.443 237.600 C 148.640 237.600,148.800 237.940,148.800 238.356 C 148.800 239.049,150.356 241.364,150.387 240.716 C 150.394 240.560,149.617 238.911,148.660 237.052 C 147.037 233.896,144.433 226.725,143.795 223.651 C 143.356 221.537,142.045 219.622,140.859 219.364 C 140.277 219.237,139.587 219.069,139.328 218.990 C 139.068 218.911,138.123 217.920,137.228 216.787 C 136.332 215.655,135.600 214.864,135.600 215.029 M150.734 246.441 C 150.973 254.103,150.487 260.792,149.669 261.106 C 148.057 261.724,142.448 265.825,140.237 268.001 C 135.209 272.949,133.664 274.326,132.844 274.586 C 132.380 274.733,132.000 275.022,132.000 275.227 C 132.000 275.432,131.729 275.600,131.399 275.600 C 131.068 275.600,130.125 275.960,129.304 276.400 C 128.484 276.840,127.529 277.200,127.182 277.200 C 126.836 277.200,126.204 277.485,125.776 277.833 C 125.011 278.456,125.011 278.461,125.800 278.190 C 129.201 277.021,130.027 276.680,130.223 276.363 C 130.346 276.163,130.769 276.000,131.162 276.000 C 131.556 276.000,132.293 275.640,132.800 275.200 C 133.307 274.760,133.873 274.400,134.057 274.400 C 134.240 274.400,136.263 272.527,138.552 270.239 C 141.211 267.580,144.157 265.132,146.713 263.457 C 151.469 260.341,151.197 261.107,151.460 250.092 C 151.595 244.440,151.514 242.612,151.103 242.026 C 150.654 241.384,150.597 242.060,150.734 246.441 M147.228 258.700 C 147.253 259.675,147.295 259.709,147.600 259.000 C 148.069 257.907,148.069 257.600,147.600 257.600 C 147.380 257.600,147.213 258.095,147.228 258.700 M256.600 275.889 C 257.040 275.998,257.580 276.221,257.800 276.386 C 258.020 276.551,259.640 277.167,261.400 277.755 C 263.160 278.342,264.960 278.992,265.400 279.199 C 265.840 279.406,268.090 280.306,270.400 281.200 C 272.710 282.094,274.960 282.992,275.400 283.197 C 277.129 284.000,283.378 286.355,283.488 286.245 C 283.748 285.986,278.337 283.600,277.489 283.600 C 277.164 283.600,276.674 283.330,276.400 283.000 C 276.126 282.670,275.587 282.400,275.202 282.400 C 274.476 282.400,271.390 281.190,269.538 280.179 C 268.954 279.861,268.176 279.600,267.810 279.600 C 267.443 279.600,266.873 279.330,266.543 279.000 C 266.213 278.670,265.551 278.394,265.071 278.386 C 264.592 278.379,263.480 278.025,262.600 277.600 C 261.720 277.175,260.640 276.815,260.200 276.801 C 259.760 276.786,259.051 276.510,258.624 276.187 C 258.196 275.864,257.386 275.621,256.824 275.646 C 255.993 275.684,255.951 275.730,256.600 275.889 M123.212 278.784 C 122.888 278.989,122.741 279.275,122.886 279.419 C 123.030 279.563,123.560 279.393,124.063 279.041 C 125.049 278.350,124.270 278.115,123.212 278.784 M120.254 280.202 C 119.624 280.531,118.924 280.800,118.698 280.800 C 118.472 280.800,117.458 281.179,116.444 281.643 C 113.303 283.079,112.302 283.511,109.079 284.822 C 107.363 285.521,106.028 286.161,106.112 286.246 C 106.259 286.392,118.887 281.391,121.400 280.191 C 122.060 279.876,122.330 279.615,122.000 279.612 C 121.670 279.608,120.884 279.874,120.254 280.202 M103.212 286.784 C 102.169 287.444,103.042 287.635,104.240 287.010 C 105.167 286.526,105.239 286.406,104.600 286.409 C 104.160 286.411,103.535 286.580,103.212 286.784 M284.800 286.912 C 285.350 287.191,287.150 287.943,288.800 288.583 C 290.450 289.223,291.971 289.893,292.180 290.073 C 292.389 290.253,292.807 290.400,293.109 290.400 C 293.850 290.400,292.689 289.206,291.929 289.186 C 291.638 289.179,290.680 288.825,289.800 288.400 C 288.920 287.975,287.930 287.615,287.600 287.601 C 287.270 287.586,286.651 287.310,286.224 286.987 C 285.796 286.664,285.076 286.401,284.624 286.402 C 283.884 286.405,283.902 286.457,284.800 286.912 M100.200 288.162 C 99.540 288.461,98.134 289.016,97.076 289.395 C 96.017 289.774,95.240 290.173,95.348 290.281 C 95.456 290.390,96.502 290.115,97.672 289.672 C 101.021 288.403,102.652 287.632,102.000 287.625 C 101.670 287.621,100.860 287.863,100.200 288.162 M92.589 290.949 C 92.155 291.251,91.170 291.632,90.400 291.795 C 89.630 291.959,88.820 292.231,88.600 292.401 C 88.380 292.571,87.435 292.836,86.500 292.990 C 85.565 293.144,84.800 293.434,84.800 293.635 C 84.800 293.836,84.500 294.000,84.133 294.000 C 83.767 294.000,83.570 294.103,83.696 294.229 C 83.929 294.462,91.048 292.177,93.600 291.050 C 94.594 290.610,94.765 290.427,94.189 290.416 C 93.743 290.407,93.023 290.647,92.589 290.949 M294.800 290.976 C 295.350 291.275,297.510 292.178,299.600 292.982 C 301.690 293.786,304.140 294.794,305.044 295.222 C 305.948 295.650,306.892 296.000,307.143 296.000 C 307.393 296.000,308.780 296.558,310.225 297.241 C 311.669 297.924,312.931 298.403,313.028 298.305 C 313.125 298.208,312.529 297.802,311.702 297.404 C 310.876 297.005,309.722 296.436,309.138 296.139 C 308.554 295.843,307.699 295.600,307.238 295.600 C 306.777 295.600,306.400 295.434,306.400 295.231 C 306.400 295.028,305.725 294.653,304.900 294.397 C 304.075 294.140,302.833 293.677,302.140 293.366 C 301.446 293.054,300.702 292.800,300.485 292.800 C 300.269 292.800,299.576 292.531,298.946 292.202 C 298.316 291.874,297.504 291.604,297.143 291.602 C 296.781 291.601,296.382 291.330,296.255 291.000 C 296.125 290.659,295.544 290.407,294.913 290.416 L 293.800 290.432 294.800 290.976 M80.400 295.000 C 79.828 295.689,80.726 295.899,81.420 295.239 C 81.629 295.040,82.160 294.791,82.600 294.685 C 83.137 294.556,82.989 294.478,82.149 294.446 C 81.461 294.421,80.674 294.670,80.400 295.000 M77.600 295.861 C 77.270 295.970,76.640 296.206,76.200 296.387 C 75.760 296.568,74.534 297.023,73.476 297.400 C 72.417 297.777,71.632 298.165,71.730 298.263 C 71.828 298.361,73.684 297.813,75.854 297.044 C 78.901 295.966,80.432 294.928,77.600 295.861 M68.400 299.000 C 68.126 299.330,67.690 299.600,67.432 299.600 C 66.753 299.600,60.225 302.836,60.067 303.251 C 59.993 303.443,59.755 303.600,59.537 303.600 C 59.318 303.600,57.848 304.362,56.270 305.294 C 53.430 306.970,52.899 307.328,51.815 308.300 C 51.508 308.575,51.130 308.800,50.976 308.800 C 50.686 308.800,44.120 315.412,43.397 316.432 C 41.635 318.915,39.600 322.612,39.600 323.328 C 39.600 323.644,39.330 324.126,39.000 324.400 C 38.670 324.674,38.403 325.371,38.406 325.949 C 38.410 326.675,38.888 325.931,39.950 323.545 C 41.852 319.273,44.653 315.048,47.124 312.721 C 51.011 309.060,57.397 304.626,59.946 303.817 C 60.416 303.668,60.800 303.390,60.800 303.200 C 60.800 303.010,61.205 302.731,61.700 302.580 C 62.195 302.430,63.950 301.683,65.600 300.921 C 68.973 299.364,69.934 298.946,70.800 298.661 C 71.130 298.552,70.837 298.449,70.149 298.432 C 69.461 298.414,68.674 298.670,68.400 299.000 M314.100 298.676 C 314.485 298.776,314.800 299.006,314.800 299.186 C 314.800 299.366,315.295 299.628,315.900 299.769 C 317.513 300.144,325.195 303.317,327.800 304.685 C 329.893 305.784,333.060 308.367,334.657 310.278 C 335.506 311.294,336.515 312.407,336.900 312.752 C 337.285 313.096,337.600 313.532,337.600 313.721 C 337.600 313.910,338.214 314.995,338.964 316.132 C 341.150 319.445,343.827 324.932,344.796 328.084 C 345.288 329.688,345.925 331.720,346.210 332.600 C 346.495 333.480,346.851 334.920,347.000 335.800 C 347.149 336.680,347.414 337.580,347.587 337.800 C 349.229 339.880,349.430 393.115,347.814 397.888 C 347.543 398.689,347.675 398.803,349.156 399.039 C 350.060 399.184,350.800 399.459,350.800 399.651 C 350.800 399.846,361.670 400.000,375.400 400.000 C 398.562 400.000,400.000 399.959,400.000 399.300 C 400.000 398.641,398.516 398.600,374.433 398.600 C 360.371 398.600,348.717 398.450,348.534 398.267 C 348.024 397.758,349.603 396.801,350.976 396.788 C 352.026 396.777,352.097 396.716,351.477 396.355 C 350.788 395.954,350.765 394.719,350.980 369.840 C 351.201 344.438,351.186 343.683,350.403 341.410 C 349.962 340.126,349.600 338.591,349.600 337.999 C 349.600 337.408,349.230 336.589,348.779 336.181 C 348.133 335.596,348.007 335.134,348.192 334.019 C 348.358 333.015,348.189 332.137,347.614 331.015 C 347.166 330.144,346.800 329.276,346.800 329.087 C 346.800 328.898,346.541 328.484,346.224 328.167 C 345.907 327.850,345.526 326.779,345.377 325.788 C 345.196 324.581,344.791 323.737,344.153 323.235 C 343.629 322.822,343.200 322.106,343.200 321.642 C 343.200 321.179,342.950 320.800,342.645 320.800 C 342.337 320.800,341.975 320.220,341.834 319.500 C 341.693 318.785,341.056 317.688,340.418 317.062 C 339.713 316.371,339.154 315.309,338.993 314.357 C 338.821 313.341,338.425 312.627,337.867 312.329 C 336.942 311.834,334.800 309.810,334.800 309.431 C 334.800 308.767,329.783 304.800,328.942 304.800 C 328.644 304.800,328.400 304.634,328.400 304.432 C 328.400 304.229,327.860 303.945,327.200 303.800 C 326.540 303.655,326.000 303.395,326.000 303.222 C 326.000 303.049,324.605 302.420,322.900 301.824 C 321.195 301.228,319.322 300.484,318.738 300.171 C 318.154 299.857,317.321 299.600,316.887 299.600 C 316.453 299.600,315.874 299.330,315.600 299.000 C 315.326 298.670,314.719 298.421,314.251 298.446 C 313.575 298.483,313.544 298.530,314.100 298.676 M37.671 328.268 C 37.454 328.673,37.062 330.083,36.800 331.402 C 36.537 332.721,36.149 334.668,35.938 335.730 C 35.726 336.791,35.614 337.961,35.688 338.330 C 35.763 338.698,36.162 337.200,36.574 335.000 C 36.987 332.800,37.569 330.297,37.867 329.438 C 38.445 327.770,38.324 327.047,37.671 328.268 M34.831 340.662 C 34.597 341.508,34.424 343.460,34.449 345.000 C 34.498 348.114,34.522 348.056,35.230 343.098 C 35.759 339.391,35.546 338.089,34.831 340.662 M33.901 350.800 C 33.336 356.480,33.034 396.542,33.549 397.505 C 34.254 398.822,33.876 398.848,16.100 398.718 C 0.988 398.607,-0.000 398.643,-0.000 399.300 C 0.000 400.208,32.144 400.405,32.567 399.500 C 32.753 399.100,32.847 399.100,33.033 399.500 C 33.300 400.071,35.600 400.191,35.600 399.633 C 35.600 399.432,35.465 399.207,35.300 399.133 C 33.477 398.323,33.070 387.498,34.026 365.291 C 34.260 359.851,34.395 353.690,34.326 351.600 L 34.200 347.800 33.901 350.800 M0.000 396.400 C 0.000 396.620,0.405 396.797,0.900 396.794 C 1.628 396.789,1.685 396.714,1.200 396.400 C 0.424 395.899,0.000 395.899,0.000 396.400 M398.600 396.400 C 398.464 396.620,398.723 396.800,399.176 396.800 C 399.629 396.800,400.000 396.620,400.000 396.400 C 400.000 396.180,399.741 396.000,399.424 396.000 C 399.107 396.000,398.736 396.180,398.600 396.400 " stroke="none" fill="#bcbcbc" fill-rule="evenodd"></path><path id="path3" d="M394.991 62.481 C 394.651 63.364,395.146 64.214,395.687 63.673 C 395.948 63.412,395.942 63.026,395.668 62.539 C 395.286 61.858,395.233 61.853,394.991 62.481 M398.629 62.609 C 397.766 63.261,397.815 63.382,399.100 63.777 C 399.871 64.014,400.000 63.907,400.000 63.027 C 400.000 61.861,399.728 61.778,398.629 62.609 M183.132 87.001 C 182.988 87.145,180.919 87.403,178.535 87.574 L 174.200 87.884 178.882 87.942 C 183.118 87.994,183.700 88.092,184.986 88.964 C 186.415 89.935,191.967 90.765,193.835 90.288 C 194.311 90.167,194.111 90.075,193.308 90.046 C 189.890 89.924,187.720 88.043,190.432 87.553 C 191.381 87.381,190.866 87.289,188.750 87.253 C 187.072 87.224,185.181 87.096,184.547 86.969 C 183.913 86.843,183.276 86.857,183.132 87.001 M168.600 89.049 C 164.546 90.309,164.201 90.346,164.195 89.528 C 164.187 88.454,163.719 88.271,162.737 88.959 C 162.223 89.319,162.061 89.600,162.367 89.600 C 162.667 89.600,163.138 89.909,163.414 90.287 C 163.885 90.931,164.084 90.919,166.658 90.088 C 168.166 89.600,170.480 88.946,171.800 88.634 C 173.369 88.263,173.784 88.065,173.000 88.061 C 172.340 88.057,170.360 88.502,168.600 89.049 M159.900 90.629 C 159.075 91.170,158.400 91.709,158.400 91.828 C 158.400 92.131,160.771 90.708,161.280 90.100 C 161.858 89.409,161.631 89.496,159.900 90.629 M195.505 90.683 C 196.002 90.779,196.722 90.775,197.105 90.675 C 197.487 90.575,197.080 90.496,196.200 90.501 C 195.320 90.505,195.007 90.587,195.505 90.683 M198.800 91.200 C 199.350 91.376,200.340 91.520,201.000 91.520 C 202.167 91.520,202.172 91.511,201.200 91.200 C 200.650 91.024,199.660 90.880,199.000 90.880 C 197.833 90.880,197.828 90.889,198.800 91.200 M203.200 91.876 C 207.297 92.563,216.748 94.930,217.943 95.569 C 218.385 95.806,218.984 95.994,219.274 95.986 C 219.926 95.970,216.800 94.432,216.075 94.414 C 215.786 94.406,214.706 94.144,213.675 93.831 C 210.423 92.844,204.498 91.598,203.326 91.654 C 202.255 91.706,202.249 91.717,203.200 91.876 M155.102 94.395 C 153.253 96.089,152.125 97.545,151.244 99.371 C 150.083 101.777,149.898 101.963,148.499 102.124 L 147.000 102.295 148.600 102.248 C 150.144 102.202,150.241 102.116,151.378 99.800 C 152.121 98.287,153.574 96.402,155.309 94.700 C 158.719 91.356,158.604 91.186,155.102 94.395 M221.600 96.865 C 222.590 97.335,224.020 98.007,224.779 98.360 C 246.948 108.656,260.042 140.411,253.743 168.600 C 252.379 174.706,252.374 174.506,253.898 174.826 C 258.051 175.697,259.565 179.597,257.776 184.814 C 257.213 186.456,256.571 188.520,256.349 189.400 C 256.127 190.280,255.768 191.327,255.552 191.728 C 255.336 192.128,254.995 193.838,254.794 195.528 C 254.197 200.558,253.400 203.877,251.560 209.000 C 251.165 210.100,250.744 211.472,250.626 212.049 C 249.959 215.294,246.028 218.930,243.406 218.725 C 241.819 218.601,241.802 218.615,241.549 220.200 C 241.409 221.080,241.097 222.340,240.856 223.000 C 240.614 223.660,239.752 226.360,238.938 229.000 C 237.462 233.793,236.832 235.455,234.922 239.600 C 233.172 243.398,232.762 245.254,232.539 250.400 C 232.253 257.000,232.590 258.013,235.790 260.181 C 238.376 261.933,242.942 266.276,245.345 269.269 C 246.956 271.276,251.073 274.660,251.448 274.285 C 251.573 274.160,250.984 273.620,250.138 273.085 C 249.292 272.550,247.070 270.440,245.200 268.395 C 241.060 263.867,240.155 262.992,237.758 261.200 C 233.332 257.891,233.605 258.434,233.541 252.800 C 233.456 245.127,233.728 244.075,237.788 236.400 C 238.628 234.812,239.200 232.664,239.200 231.095 C 239.200 230.299,239.353 229.553,239.539 229.438 C 239.726 229.322,240.460 227.427,241.172 225.226 C 242.787 220.231,243.426 219.377,245.821 219.018 C 249.835 218.416,253.403 210.510,255.212 198.211 C 255.847 193.892,256.900 189.833,257.477 189.480 C 257.765 189.304,258.000 188.470,258.000 187.626 C 258.000 186.782,258.269 185.576,258.598 184.946 C 260.460 181.374,258.539 176.210,254.717 174.513 C 253.563 174.001,253.460 171.061,254.523 169.000 C 254.750 168.560,255.080 167.030,255.256 165.600 C 255.432 164.170,255.774 161.470,256.016 159.600 C 256.492 155.924,256.245 146.255,255.623 144.227 C 255.416 143.552,255.070 142.010,254.853 140.800 C 254.144 136.834,253.573 134.617,252.982 133.538 C 252.662 132.954,252.399 132.144,252.398 131.738 C 252.396 131.332,252.154 130.538,251.859 129.973 C 251.565 129.409,251.191 128.420,251.030 127.776 C 250.868 127.131,250.573 126.408,250.374 126.169 C 250.175 125.929,249.019 123.796,247.806 121.429 C 246.592 119.061,245.284 116.712,244.899 116.209 C 244.515 115.705,243.930 114.887,243.600 114.391 C 240.456 109.665,235.350 104.586,230.567 101.426 C 229.265 100.566,227.750 99.565,227.200 99.201 C 225.779 98.261,220.893 95.999,220.299 96.006 C 220.025 96.009,220.610 96.395,221.600 96.865 M143.200 103.400 C 142.650 103.714,142.380 103.972,142.600 103.972 C 142.820 103.972,143.450 103.714,144.000 103.400 C 144.550 103.086,144.820 102.828,144.600 102.828 C 144.380 102.828,143.750 103.086,143.200 103.400 M139.800 104.992 C 138.920 105.530,137.833 106.138,137.384 106.343 C 136.935 106.549,136.305 107.050,135.984 107.458 C 135.440 108.149,135.451 108.160,136.143 107.616 C 136.914 107.009,138.164 106.242,139.200 105.741 C 140.539 105.093,142.174 104.003,141.800 104.008 C 141.580 104.011,140.680 104.453,139.800 104.992 M133.827 109.056 L 132.654 110.087 133.538 110.753 C 134.171 111.231,134.305 111.558,134.012 111.911 C 133.787 112.182,133.902 112.141,134.267 111.822 C 134.815 111.342,134.842 111.132,134.418 110.622 C 133.997 110.114,134.022 109.826,134.562 109.002 C 135.376 107.759,135.296 107.765,133.827 109.056 M132.438 113.843 C 129.738 117.275,128.485 122.335,129.527 125.600 L 129.974 127.000 129.753 125.400 C 129.179 121.229,129.981 118.043,132.547 114.300 C 133.726 112.581,133.657 112.293,132.438 113.843 M128.638 130.851 C 128.245 132.938,128.007 135.085,128.108 135.623 C 128.263 136.450,128.299 136.407,128.346 135.343 C 128.375 134.651,128.684 132.713,129.031 131.035 C 129.378 129.358,129.592 127.776,129.507 127.521 C 129.422 127.266,129.031 128.765,128.638 130.851 M127.766 144.000 C 127.766 148.070,127.825 149.735,127.898 147.700 C 127.971 145.665,127.971 142.335,127.898 140.300 C 127.825 138.265,127.766 139.930,127.766 144.000 M128.054 152.800 C 128.021 153.983,128.806 158.817,130.395 167.200 C 130.734 168.988,131.954 172.192,131.984 171.371 C 131.993 171.135,131.752 170.145,131.448 169.171 C 130.604 166.462,129.677 161.864,128.995 157.000 C 128.241 151.619,128.104 151.007,128.054 152.800 M132.016 172.074 C 132.007 172.225,132.177 172.815,132.394 173.385 C 132.745 174.308,132.668 174.471,131.694 174.861 C 129.203 175.859,128.610 176.274,127.496 177.800 L 126.326 179.400 126.497 185.000 C 126.625 189.224,126.830 190.895,127.331 191.800 C 128.159 193.296,128.191 192.642,127.400 190.400 C 125.113 183.919,127.440 175.600,131.539 175.600 C 132.968 175.600,133.434 174.379,132.595 172.836 C 132.285 172.266,132.025 171.923,132.016 172.074 M128.017 193.490 C 128.008 193.760,128.359 194.570,128.799 195.290 C 129.238 196.011,129.590 196.420,129.582 196.200 C 129.558 195.575,128.036 192.939,128.017 193.490 M129.795 197.400 C 129.967 197.840,130.309 199.040,130.554 200.067 C 130.800 201.094,131.135 202.069,131.300 202.234 C 131.465 202.398,131.604 202.908,131.609 203.367 C 131.613 203.825,132.158 205.730,132.819 207.600 C 133.480 209.470,134.204 211.585,134.429 212.300 C 134.654 213.015,135.011 213.600,135.222 213.600 C 135.460 213.600,135.468 213.333,135.244 212.900 C 134.184 210.852,133.489 208.734,131.204 200.600 C 130.710 198.840,130.120 197.220,129.894 197.000 C 129.613 196.727,129.582 196.854,129.795 197.400 M135.614 214.264 C 135.596 214.853,138.696 218.798,139.328 218.990 C 139.587 219.069,140.292 219.241,140.893 219.372 C 141.932 219.600,143.009 221.012,143.659 223.000 C 143.903 223.746,143.923 223.749,143.960 223.044 C 144.056 221.227,142.332 218.800,140.945 218.800 C 139.619 218.800,137.341 216.850,136.114 214.665 C 135.847 214.189,135.622 214.009,135.614 214.264 M144.038 224.400 C 144.029 224.730,144.365 225.990,144.783 227.200 C 145.202 228.410,145.545 229.130,145.545 228.800 C 145.548 227.990,144.057 223.640,144.038 224.400 M146.432 231.934 C 146.395 232.556,151.213 242.521,151.440 242.293 C 151.524 242.209,150.542 239.993,149.258 237.370 C 147.973 234.746,146.819 232.330,146.693 232.000 C 146.528 231.570,146.454 231.551,146.432 231.934 M151.765 249.800 C 151.766 253.760,151.826 255.326,151.898 253.280 C 151.971 251.234,151.971 247.994,151.898 246.080 C 151.824 244.166,151.765 245.840,151.765 249.800 M151.049 257.815 C 150.912 258.173,150.800 258.986,150.800 259.622 C 150.800 260.647,150.339 261.082,146.757 263.428 C 144.156 265.132,141.228 267.562,138.552 270.239 C 136.263 272.527,134.240 274.400,134.057 274.400 C 133.873 274.400,133.307 274.760,132.800 275.200 C 132.293 275.640,132.014 276.000,132.181 276.000 C 132.796 276.000,135.892 273.374,139.232 270.019 C 141.119 268.123,144.057 265.679,145.761 264.586 C 150.545 261.518,151.098 260.987,151.406 259.166 C 151.691 257.480,151.482 256.689,151.049 257.815 M252.800 274.973 C 254.406 275.842,260.041 277.692,260.298 277.435 C 260.428 277.306,260.278 277.199,259.967 277.198 C 259.655 277.196,258.917 276.943,258.327 276.635 C 257.737 276.327,256.690 275.951,256.000 275.800 C 255.310 275.649,254.263 275.273,253.673 274.965 C 253.083 274.657,252.420 274.411,252.200 274.418 C 251.980 274.426,252.250 274.676,252.800 274.973 M130.218 276.371 C 130.092 276.575,129.316 276.957,128.494 277.221 C 127.672 277.485,126.100 278.112,125.000 278.613 C 123.175 279.446,120.305 280.713,118.800 281.351 C 118.470 281.490,118.696 281.510,119.302 281.394 C 119.908 281.279,121.708 280.585,123.302 279.852 C 124.896 279.120,127.415 278.023,128.900 277.415 C 130.385 276.807,131.600 276.240,131.600 276.155 C 131.600 275.834,130.438 276.016,130.218 276.371 M262.000 278.240 C 263.647 279.027,263.425 278.936,270.632 281.779 C 273.730 283.000,276.430 283.996,276.632 283.991 C 277.203 283.977,274.994 282.989,270.400 281.206 C 268.090 280.309,265.840 279.398,265.400 279.181 C 264.960 278.965,264.060 278.629,263.400 278.436 C 262.740 278.242,261.840 277.968,261.400 277.827 C 260.960 277.686,261.230 277.872,262.000 278.240 M116.600 282.214 C 115.940 282.517,115.681 282.772,116.024 282.782 C 116.366 282.792,116.996 282.536,117.424 282.213 C 118.372 281.496,118.169 281.496,116.600 282.214 M113.600 283.400 C 113.050 283.714,112.780 283.972,113.000 283.972 C 113.220 283.972,113.850 283.714,114.400 283.400 C 114.950 283.086,115.220 282.828,115.000 282.828 C 114.780 282.828,114.150 283.086,113.600 283.400 M109.039 285.232 C 107.521 285.874,106.081 286.401,105.839 286.402 C 105.598 286.404,104.950 286.637,104.400 286.920 C 103.850 287.203,101.827 288.044,99.904 288.789 C 97.982 289.533,96.493 290.226,96.596 290.329 C 96.699 290.432,98.812 289.706,101.291 288.716 C 103.771 287.726,107.078 286.422,108.641 285.818 C 110.203 285.215,111.733 284.561,112.041 284.366 C 113.113 283.687,111.780 284.072,109.039 285.232 M278.400 284.700 C 282.473 286.587,292.129 290.405,292.327 290.206 C 292.430 290.103,292.174 289.898,291.757 289.750 C 290.576 289.331,286.289 287.606,285.400 287.192 C 283.834 286.463,277.495 284.000,277.250 284.026 C 277.112 284.040,277.630 284.343,278.400 284.700 M93.400 291.207 C 92.520 291.639,92.238 291.882,92.774 291.746 C 94.274 291.366,96.273 290.432,95.600 290.426 C 95.270 290.423,94.280 290.775,93.400 291.207 M294.344 291.209 C 295.303 291.644,296.203 291.992,296.344 291.983 C 296.849 291.950,293.787 290.433,293.200 290.426 C 292.870 290.421,293.385 290.774,294.344 291.209 M88.800 292.820 C 87.810 293.225,87.270 293.556,87.600 293.556 C 87.930 293.556,89.010 293.215,90.000 292.800 C 90.990 292.385,91.530 292.053,91.200 292.064 C 90.870 292.074,89.790 292.414,88.800 292.820 M296.891 292.224 C 297.288 292.621,311.763 298.370,311.934 298.199 C 312.125 298.008,307.704 296.000,307.094 296.000 C 306.871 296.000,305.948 295.652,305.044 295.227 C 301.665 293.638,296.346 291.679,296.891 292.224 M84.000 294.281 C 83.010 294.601,81.840 295.015,81.400 295.202 C 80.960 295.389,78.834 296.114,76.675 296.812 C 74.516 297.511,72.821 298.154,72.907 298.241 C 73.075 298.409,86.414 294.120,86.741 293.793 C 87.070 293.463,85.878 293.676,84.000 294.281 M70.800 298.667 C 70.470 298.780,69.633 299.126,68.940 299.436 C 68.246 299.746,67.526 300.001,67.340 300.003 C 67.153 300.004,66.460 300.383,65.800 300.845 C 64.447 301.791,64.510 301.772,69.200 299.825 C 72.003 298.661,73.057 297.899,70.800 298.667 M313.791 299.162 C 314.666 299.626,315.566 299.929,315.791 299.835 C 316.016 299.740,315.900 299.649,315.533 299.632 C 315.167 299.614,314.807 299.433,314.733 299.230 C 314.660 299.026,314.060 298.738,313.400 298.589 C 312.330 298.348,312.372 298.410,313.791 299.162 M317.400 300.577 C 320.765 302.143,321.645 302.489,321.819 302.314 C 321.924 302.210,320.882 301.646,319.505 301.061 C 316.922 299.965,315.266 299.584,317.400 300.577 M62.450 302.254 C 61.043 302.868,59.664 304.000,60.322 304.000 C 60.531 304.000,60.917 303.742,61.179 303.426 C 61.441 303.110,62.181 302.736,62.823 302.595 C 63.465 302.454,64.094 302.172,64.219 301.969 C 64.525 301.475,64.068 301.548,62.450 302.254 M323.704 303.200 C 324.525 303.640,325.420 304.000,325.693 304.000 C 325.965 304.000,325.516 303.640,324.696 303.200 C 323.875 302.760,322.980 302.400,322.707 302.400 C 322.435 302.400,322.884 302.760,323.704 303.200 M56.558 305.534 C 52.100 308.210,46.447 312.886,44.694 315.348 C 44.219 316.017,45.310 315.097,47.120 313.304 C 49.988 310.462,53.158 308.093,58.400 304.873 C 59.170 304.400,59.620 304.026,59.400 304.040 C 59.180 304.055,57.901 304.727,56.558 305.534 M326.400 304.166 C 326.400 304.257,327.345 304.904,328.500 305.604 C 331.232 307.258,336.223 312.354,338.095 315.400 C 340.251 318.908,343.454 325.525,344.001 327.600 C 344.262 328.590,344.641 329.718,344.845 330.107 C 347.656 335.474,348.534 346.345,348.226 372.000 C 347.941 395.853,347.871 396.930,346.562 397.788 C 345.090 398.753,35.957 398.528,34.990 397.562 C 34.426 396.998,34.348 394.837,34.312 378.962 C 34.283 366.169,34.189 362.669,33.986 366.800 C 33.829 369.990,33.678 377.972,33.650 384.538 C 33.598 397.063,33.655 397.538,35.471 399.493 C 36.033 400.097,350.800 400.256,350.800 399.651 C 350.800 399.459,350.060 399.184,349.156 399.039 C 347.675 398.803,347.543 398.689,347.814 397.888 C 349.430 393.115,349.229 339.880,347.587 337.800 C 347.414 337.580,347.149 336.680,347.000 335.800 C 346.851 334.920,346.495 333.480,346.210 332.600 C 345.925 331.720,345.288 329.688,344.796 328.084 C 343.827 324.932,341.150 319.445,338.964 316.132 C 338.214 314.995,337.600 313.940,337.600 313.789 C 337.600 313.471,336.704 312.452,333.560 309.190 C 331.117 306.656,326.400 303.346,326.400 304.166 M42.688 318.262 C 41.482 320.173,39.998 323.062,40.006 323.484 C 40.009 323.658,40.747 322.450,41.646 320.800 C 42.545 319.150,43.482 317.675,43.728 317.522 C 43.975 317.369,44.060 317.127,43.917 316.984 C 43.775 316.841,43.221 317.416,42.688 318.262 M39.265 325.017 C 38.595 326.488,38.723 326.802,39.447 325.465 C 39.786 324.840,39.988 324.254,39.896 324.163 C 39.805 324.071,39.521 324.456,39.265 325.017 M37.901 329.292 C 36.884 332.971,35.592 339.569,35.654 340.764 L 35.709 341.800 35.876 340.800 C 36.387 337.743,38.057 329.957,38.433 328.876 C 38.675 328.184,38.810 327.430,38.733 327.200 C 38.657 326.971,38.283 327.913,37.901 329.292 M34.990 344.138 C 34.839 345.352,34.798 346.582,34.899 346.872 C 35.000 347.162,35.218 346.264,35.384 344.875 C 35.549 343.487,35.590 342.257,35.475 342.142 C 35.360 342.027,35.142 342.925,34.990 344.138 M34.554 352.400 C 34.554 355.150,34.618 356.275,34.696 354.900 C 34.774 353.525,34.774 351.275,34.696 349.900 C 34.618 348.525,34.554 349.650,34.554 352.400 " stroke="none" fill="#d4d4d4" fill-rule="evenodd"></path><path id="path4" d="M171.800 88.634 C 170.480 88.946,168.166 89.600,166.658 90.088 C 164.084 90.919,163.885 90.931,163.414 90.287 C 162.011 88.368,153.847 94.825,151.387 99.800 L 150.200 102.200 147.666 102.512 C 145.993 102.718,144.022 103.371,141.866 104.434 C 135.259 107.690,133.318 109.296,134.405 110.606 C 134.768 111.043,134.561 111.561,133.438 113.032 C 131.719 115.283,129.594 119.656,129.614 120.901 C 129.623 121.414,129.964 120.857,130.409 119.600 C 131.154 117.501,132.674 114.426,133.177 114.000 C 134.741 112.676,135.643 110.954,135.414 109.732 C 135.272 108.976,135.329 108.400,135.547 108.400 C 135.758 108.400,136.887 107.770,138.056 107.000 C 139.225 106.230,140.389 105.600,140.642 105.600 C 140.895 105.600,141.326 105.330,141.600 105.000 C 141.874 104.670,142.391 104.399,142.749 104.398 C 143.107 104.396,143.940 104.109,144.600 103.759 C 145.260 103.409,146.832 103.025,148.093 102.906 C 150.524 102.677,151.560 101.691,152.248 98.950 C 152.388 98.392,152.750 97.841,153.051 97.725 C 153.353 97.609,153.600 97.296,153.600 97.028 C 153.600 96.761,154.352 95.925,155.270 95.171 C 156.189 94.417,157.269 93.485,157.670 93.100 C 158.072 92.715,158.545 92.400,158.721 92.400 C 158.898 92.400,159.798 91.844,160.721 91.165 C 161.780 90.387,162.402 90.128,162.406 90.465 C 162.426 92.239,163.531 92.220,166.883 90.388 C 167.258 90.183,168.338 89.903,169.283 89.766 C 170.227 89.629,171.888 89.266,172.973 88.959 C 176.397 87.989,181.143 88.199,181.577 89.340 C 181.985 90.413,184.160 90.781,190.359 90.824 C 192.251 90.837,194.700 91.021,195.800 91.232 C 196.900 91.444,199.420 91.860,201.400 92.158 C 203.380 92.456,205.810 92.894,206.800 93.132 C 207.790 93.370,209.500 93.761,210.600 94.001 C 215.311 95.029,216.263 95.280,217.400 95.789 C 218.060 96.084,219.410 96.645,220.400 97.034 C 229.202 100.494,236.001 105.670,241.375 113.000 C 244.682 117.510,245.312 118.534,247.404 122.800 C 248.214 124.450,249.219 126.481,249.638 127.312 C 250.057 128.144,250.400 129.139,250.400 129.523 C 250.400 129.908,250.647 130.577,250.949 131.011 C 251.251 131.445,251.625 132.430,251.779 133.200 C 251.934 133.970,252.296 135.320,252.584 136.200 C 255.553 145.288,255.234 164.494,251.971 173.077 C 251.372 174.652,251.852 175.600,253.247 175.600 C 255.260 175.600,256.612 176.591,257.540 178.749 L 258.396 180.738 256.759 185.469 C 255.858 188.071,254.695 192.569,254.173 195.463 C 253.173 201.011,251.708 207.127,251.218 207.800 C 251.058 208.020,250.512 209.516,250.005 211.125 C 249.270 213.459,248.665 214.493,247.017 216.236 L 244.950 218.422 243.457 217.798 C 241.514 216.986,241.434 217.063,240.633 220.488 C 239.938 223.459,239.567 224.717,237.825 230.000 C 236.251 234.777,235.636 236.372,234.437 238.789 C 231.153 245.408,230.628 256.759,233.496 259.146 C 235.576 260.877,238.763 263.198,239.092 263.223 C 239.262 263.236,240.390 264.424,241.600 265.863 C 246.637 271.856,251.385 275.672,254.568 276.284 C 255.246 276.415,256.155 276.764,256.589 277.061 C 257.023 277.357,257.743 277.601,258.189 277.602 C 258.635 277.604,259.516 277.874,260.146 278.202 C 260.776 278.531,261.496 278.806,261.746 278.814 C 261.996 278.821,262.920 279.175,263.800 279.600 C 264.680 280.025,265.704 280.379,266.076 280.386 C 266.448 280.394,266.860 280.573,266.991 280.785 C 267.122 280.997,267.807 281.346,268.514 281.561 C 270.552 282.180,273.287 283.175,274.700 283.813 C 275.415 284.136,276.585 284.664,277.300 284.986 C 278.015 285.309,279.097 285.689,279.704 285.831 C 280.311 285.972,280.906 286.249,281.027 286.444 C 281.148 286.640,281.532 286.800,281.880 286.800 C 282.228 286.800,283.342 287.179,284.356 287.643 C 286.701 288.715,288.192 289.344,290.200 290.108 C 293.353 291.307,297.007 292.905,297.380 293.250 C 297.589 293.442,298.069 293.600,298.448 293.600 C 298.826 293.600,299.645 293.853,300.268 294.162 C 302.915 295.476,305.125 296.401,305.644 296.413 C 305.950 296.420,306.549 296.690,306.976 297.013 C 307.404 297.336,308.034 297.601,308.376 297.602 C 308.719 297.604,309.516 297.874,310.146 298.202 C 310.776 298.531,311.476 298.800,311.702 298.800 C 311.928 298.800,312.942 299.186,313.956 299.657 C 314.970 300.128,316.430 300.780,317.200 301.106 C 317.970 301.431,319.110 301.946,319.732 302.249 C 320.355 302.552,321.121 302.800,321.434 302.800 C 321.747 302.800,322.675 303.160,323.496 303.600 C 324.316 304.040,325.306 304.400,325.694 304.400 C 326.082 304.400,326.400 304.535,326.400 304.700 C 326.401 304.865,327.317 305.515,328.437 306.143 C 331.854 308.063,335.444 312.012,338.670 317.400 C 339.547 318.864,342.400 324.654,342.400 324.969 C 342.400 325.139,342.649 325.846,342.953 326.540 C 344.253 329.501,346.200 336.865,347.201 342.600 C 348.060 347.524,347.293 395.924,346.338 397.075 C 345.872 397.636,41.919 397.819,37.200 397.260 L 35.000 397.000 34.798 377.000 L 34.596 357.000 34.398 376.800 C 34.212 395.371,34.244 396.650,34.911 397.400 C 35.897 398.509,344.875 398.894,346.562 397.788 C 347.871 396.930,347.941 395.853,348.226 372.000 C 348.534 346.345,347.656 335.474,344.845 330.107 C 344.641 329.718,344.262 328.590,344.001 327.600 C 343.454 325.525,340.251 318.908,338.095 315.400 C 335.543 311.248,327.593 304.000,325.591 304.000 C 325.374 304.000,324.525 303.640,323.704 303.200 C 322.884 302.760,321.982 302.400,321.700 302.400 C 321.419 302.400,320.877 302.226,320.495 302.014 C 319.098 301.238,316.029 300.000,315.502 300.000 C 315.204 300.000,314.789 299.839,314.580 299.641 C 314.371 299.444,310.600 297.837,306.200 296.070 C 294.036 291.186,282.294 286.423,281.400 286.011 C 280.438 285.568,278.442 284.777,270.800 281.810 C 267.610 280.571,264.640 279.409,264.200 279.228 C 261.627 278.171,260.704 277.831,257.565 276.788 C 251.623 274.814,249.693 273.699,246.618 270.464 C 240.517 264.046,238.084 261.735,235.790 260.181 C 231.417 257.219,231.031 248.045,234.922 239.600 C 236.832 235.455,237.462 233.793,238.938 229.000 C 239.752 226.360,240.614 223.660,240.856 223.000 C 241.097 222.340,241.409 221.080,241.549 220.200 C 241.802 218.615,241.819 218.601,243.406 218.725 C 246.028 218.930,249.959 215.294,250.626 212.049 C 250.744 211.472,251.165 210.100,251.560 209.000 C 253.400 203.877,254.197 200.558,254.794 195.528 C 254.995 193.838,255.336 192.128,255.552 191.728 C 255.768 191.327,256.127 190.280,256.349 189.400 C 256.571 188.520,257.213 186.456,257.776 184.814 C 259.565 179.597,258.051 175.697,253.898 174.826 C 252.374 174.506,252.379 174.706,253.743 168.600 C 257.934 149.844,254.387 131.273,243.510 115.024 C 236.780 104.972,227.001 97.995,214.800 94.540 C 207.661 92.519,197.611 90.762,189.903 90.189 C 187.149 89.984,186.105 89.724,184.986 88.964 C 183.283 87.809,176.053 87.628,171.800 88.634 M129.200 122.448 C 129.200 122.720,129.402 123.501,129.648 124.182 C 130.009 125.180,129.923 126.272,129.204 129.810 C 126.811 141.587,128.662 164.706,132.648 172.839 C 133.422 174.417,132.947 175.600,131.539 175.600 C 126.081 175.600,124.900 186.348,129.344 195.561 C 129.896 196.705,130.743 199.027,131.226 200.720 C 135.071 214.206,137.543 218.800,140.954 218.800 C 142.262 218.800,144.000 221.126,144.000 222.876 C 144.000 223.512,145.442 228.491,146.005 229.800 C 146.195 230.240,146.475 231.043,146.628 231.583 C 146.781 232.124,148.051 234.914,149.449 237.783 L 151.992 243.000 151.996 249.367 C 152.003 260.469,151.939 260.624,145.761 264.586 C 144.057 265.679,141.119 268.123,139.232 270.019 C 134.701 274.570,133.284 275.587,129.000 277.362 C 127.020 278.183,124.320 279.359,123.000 279.975 C 121.680 280.591,120.150 281.222,119.600 281.375 C 119.050 281.529,118.060 281.900,117.400 282.199 C 114.748 283.400,106.445 286.800,106.162 286.800 C 105.995 286.800,103.866 287.595,101.430 288.566 C 98.993 289.537,94.840 291.085,92.200 292.005 C 85.771 294.246,84.489 294.755,85.200 294.781 C 85.952 294.810,89.428 293.706,90.932 292.961 C 91.555 292.652,92.275 292.399,92.532 292.398 C 92.790 292.396,93.483 292.143,94.073 291.835 C 94.663 291.527,95.743 291.144,96.471 290.984 C 97.691 290.716,98.357 290.468,101.800 288.999 C 105.010 287.630,107.188 286.800,107.573 286.800 C 107.807 286.800,109.123 286.288,110.499 285.662 C 111.875 285.037,113.810 284.195,114.800 283.792 C 115.790 283.388,117.355 282.730,118.278 282.329 C 119.201 281.928,120.163 281.600,120.416 281.600 C 120.669 281.600,121.354 281.349,121.938 281.042 C 123.228 280.365,126.033 279.085,128.200 278.185 C 133.810 275.855,134.764 275.181,140.459 269.522 C 142.630 267.365,144.592 265.600,144.819 265.600 C 145.234 265.600,147.307 264.237,148.318 263.300 C 148.614 263.025,149.034 262.800,149.250 262.800 C 149.466 262.800,150.211 262.269,150.906 261.620 L 152.168 260.440 152.332 251.652 L 152.496 242.864 150.986 239.732 C 150.156 238.009,148.874 235.380,148.138 233.890 C 147.402 232.399,146.800 230.935,146.800 230.635 C 146.800 230.336,146.531 229.576,146.202 228.946 C 145.874 228.316,145.603 227.350,145.600 226.800 C 145.597 226.250,145.355 225.339,145.061 224.776 C 144.767 224.213,144.404 222.986,144.254 222.048 C 143.845 219.487,142.977 218.400,141.341 218.400 C 139.259 218.400,134.800 213.016,134.800 210.502 C 134.800 210.276,134.531 209.576,134.202 208.946 C 133.874 208.316,133.604 207.476,133.602 207.080 C 133.601 206.684,133.355 205.874,133.056 205.280 C 132.756 204.686,132.388 203.399,132.238 202.420 C 132.088 201.441,131.818 200.451,131.638 200.220 C 131.458 199.989,131.184 199.260,131.029 198.600 C 130.874 197.940,130.221 196.278,129.577 194.906 C 127.842 191.210,127.480 189.498,127.311 184.192 L 127.157 179.383 128.478 177.878 C 129.493 176.722,130.219 176.303,131.600 176.076 C 133.676 175.736,134.117 174.712,133.096 172.606 C 132.205 170.769,131.396 167.524,130.051 160.400 C 127.802 148.481,127.874 138.429,130.286 127.690 C 130.786 125.462,130.829 124.669,130.470 124.310 C 130.211 124.051,130.000 123.527,130.000 123.144 C 130.000 122.761,129.820 122.336,129.600 122.200 C 129.380 122.064,129.200 122.176,129.200 122.448 M75.600 297.571 C 71.310 299.050,66.630 300.807,65.200 301.474 C 63.770 302.141,62.330 302.803,62.000 302.945 C 56.212 305.430,44.000 314.964,44.000 316.997 C 44.000 317.329,43.832 317.600,43.627 317.600 C 43.128 317.600,38.796 326.445,38.814 327.428 C 38.830 328.351,40.366 325.344,40.386 324.349 C 40.394 323.991,40.670 323.474,41.000 323.200 C 41.330 322.926,41.600 322.405,41.600 322.042 C 41.600 321.679,42.230 320.425,43.000 319.256 C 43.770 318.087,44.400 317.028,44.400 316.903 C 44.400 315.099,56.933 305.716,62.800 303.127 C 63.350 302.884,64.883 302.171,66.207 301.543 C 67.530 300.914,68.790 300.394,69.007 300.386 C 69.223 300.379,70.120 300.025,71.000 299.600 C 71.880 299.175,72.894 298.821,73.254 298.814 C 73.614 298.806,74.424 298.531,75.054 298.202 C 75.684 297.874,76.560 297.597,77.000 297.588 C 77.440 297.579,78.250 297.314,78.800 297.000 C 79.350 296.686,80.160 296.416,80.600 296.401 C 81.040 296.385,82.120 296.025,83.000 295.600 C 85.876 294.211,83.536 294.834,75.600 297.571 M38.239 329.400 C 36.431 336.100,34.785 347.521,34.868 352.800 L 34.934 357.000 35.243 352.200 C 35.614 346.428,36.522 338.774,36.910 338.146 C 37.064 337.897,37.374 336.367,37.598 334.747 C 37.823 333.126,38.201 331.319,38.439 330.732 C 38.676 330.144,38.802 329.334,38.717 328.932 C 38.604 328.394,38.477 328.518,38.239 329.400 " stroke="none" fill="#dcdcdc" fill-rule="evenodd"></path></g></svg>