<svg id="Capa_1" enable-background="new 0 0 512 512" height="512" viewBox="0 0 512 512" width="512" xmlns="http://www.w3.org/2000/svg"><g><path d="m427.24 283.76v163.24c0 19.3-15.7 35-35 35h-178c-19.3 0-35-15.7-35-35v-22h-30v22c0 35.84 29.16 65 65 65h178c35.84 0 65-29.16 65-65v-163.08c-10.086 1.514-20.304 1.415-30-.16z"/><circle cx="442.74" cy="187.5" r="67.5"/><path d="m197.24 380v-33.751c56.427-12.632 100.161-55.594 115.209-109.17 2.313-8.236-2.727-16.741-11.059-18.669l-3.337-.773 24.833-104.341c9.243-38.839-17.52-76.543-56.421-81.32-5.381-18.451-22.436-31.976-42.601-31.976-24.486 0-44.945 19.624-45.606 43.746-.674 24.521 18.526 46.254 45.606 46.254 18.646 0 34.632-11.566 41.19-27.896 20.142 3.789 33.521 23.766 28.646 44.246l-24.875 104.52-6.463-1.496c-7.71-1.783-15.475 2.725-17.75 10.302-10.658 35.518-44.12 60.324-81.372 60.324s-70.714-24.806-81.372-60.323c-2.274-7.577-10.045-12.083-17.75-10.302l-6.463 1.496-24.875-104.521c-4.871-20.462 8.488-40.454 28.646-44.246 6.558 16.33 22.544 27.896 41.19 27.896 24.486 0 44.945-19.624 45.606-43.746.699-25.407-19.649-46.254-44.982-46.254-20.277 0-37.458 13.484-43.064 31.954-38.92 4.684-65.852 42.387-56.581 81.342l24.832 104.341-3.337.773c-8.335 1.929-13.371 10.436-11.059 18.669 15.018 53.47 58.674 96.514 115.209 109.17v33.751c0 8.284 6.716 15 15 15h38c8.284 0 15-6.716 15-15z"/></g></svg>